<svg width="821" height="158" viewBox="0 0 821 158" fill="none" xmlns="http://www.w3.org/2000/svg">
<path d="M819.223 76.1522C811.675 75.3974 805.616 67.1131 798.651 64.2835C787.111 59.5956 774.994 54.7524 763.836 49.2498C734.988 35.0236 704.476 25.3793 673.633 16.369C620.103 0.730973 557.841 -0.816022 502.724 6.17071C477.586 9.35716 452.093 13.0258 427.467 19.1823C408.779 23.8545 390.251 31.124 371.728 36.5898C365.555 38.4113 359.423 41.4441 353.178 42.8319C347.429 44.1094 340.91 43.1622 334.979 44.1506C317.518 47.0609 299.301 47.5482 282.054 51.7114C246.901 60.1966 210.564 63.9946 175.235 72.196C148.044 78.5082 118.89 83.7802 93.6486 95.9334C62.2909 111.032 33.5824 130.908 6.69919 152.903C-0.588459 158.866 1.17356 156.632 4.23753 149.738C6.57264 144.484 13.4129 132.582 10.6554 144.991C9.96512 148.097 9.17563 150.454 8.98502 153.695C8.75856 157.544 15.0805 154.093 19.2712 153.782C28.4045 153.106 37.7913 153.695 46.9649 153.695" stroke="#347E8F" stroke-width="3" stroke-linecap="round"/>
</svg>
