<svg width="350" height="94" viewBox="0 0 350 94" fill="none" xmlns="http://www.w3.org/2000/svg">
<path d="M348.491 1.88913C316.636 1.88913 284.78 1.88913 252.925 1.88913C224.127 1.88913 195.947 0.367222 167.734 6.63661C156.011 9.24183 144.411 12.3657 133.271 16.9228C121.375 21.7895 111.095 29.2906 99.3354 34.3303C84.4203 40.7224 71.8821 52.4152 56.9596 58.859C49.062 62.2693 42.799 68.4889 35.1563 72.3102C29.1907 75.293 22.768 76.9947 16.9576 80.2227C13.1049 82.3631 9.02491 84.1451 5.08892 86.1131C-1.26528 89.2902 4.55201 79.9853 5.44058 77.4973C6.29947 75.0924 15.9906 61.5954 15.9906 66.9473C15.9906 73.2332 11.3493 77.6968 9.74849 83.2998C9.28873 84.9089 17.95 84.3996 20.9139 85.7614C24.6517 87.4788 27.9695 92.0914 31.9914 92.0914" stroke="#347E8F" stroke-width="3" stroke-linecap="round"/>
</svg>
