<svg width="160" height="56" viewBox="0 0 160 56" fill="none" xmlns="http://www.w3.org/2000/svg">
<path d="M157.823 2.16797C153.891 2.16797 151.187 3.19608 147.449 4.54171C138.913 7.6147 129.939 8.83874 121.602 12.3663C108.641 17.8496 94.508 21.7333 80.6325 23.9713C63.7977 26.6865 46.8437 28.0365 29.8168 28.9825C22.1006 29.4112 14.4211 30.6529 6.69478 30.6529C1.63205 30.6529 7.09716 27.7009 8.18936 26.6087C11.5575 23.2406 13.6249 18.4239 17.3327 15.1796C21.3275 11.6841 12.0308 24.5257 8.27728 28.2792C7.04099 29.5154 1.85938 33.2812 1.85938 35.0487C1.85938 35.6285 4.69086 35.3889 5.11228 35.5762C6.79738 36.3252 8.67795 38.8076 9.94769 40.1479C13.2298 43.6123 16.7036 52.6691 20.146 54.3903" stroke="#347E8F" stroke-width="3" stroke-linecap="round"/>
</svg>
