<svg width="395" height="45" viewBox="0 0 395 45" fill="none" xmlns="http://www.w3.org/2000/svg">
<path d="M393.013 27.7887C377.545 27.7887 362.696 31.5046 347.473 34.1187C322.272 38.446 296.544 37.4693 271.161 39.6574C242.187 42.1552 212.587 42.8113 183.508 41.9432C155.547 41.1086 128.16 34.732 100.251 34.1187C84.8929 33.7811 69.7161 28.8556 54.7108 25.8545C49.816 24.8756 40.3749 24.5913 36.1604 22.25C27.7857 17.5974 16.3362 20.4748 8.11504 13.8979C5.76235 12.0157 2.13672 9.41442 2.13672 5.10624C2.13672 1.91477 6.82467 9.47161 8.81837 11.9637C12.0341 15.9834 15.5027 19.7666 18.665 23.8324C21.2731 27.1857 21.6983 31.0332 23.5004 34.9978C24.5743 37.3605 24.8302 40.8114 26.7533 42.7345C29.4929 45.4741 29.1757 39.8707 28.6875 38.5145C25.1947 28.8123 16.3792 23.9366 16.3792 12.755C16.3792 5.13892 32.978 6.17287 38.5341 2.46875" stroke="#347E8F" stroke-width="3" stroke-linecap="round"/>
</svg>
