<svg width="396" height="222" viewBox="0 0 396 222" fill="none" xmlns="http://www.w3.org/2000/svg">
<path d="M394.167 31.6703C378.304 30.789 363.378 21.0246 348.636 15.9907C320.57 6.40727 292.332 1.8187 262.699 1.8187C223.206 1.8187 185.929 -0.782305 151.133 20.8152C101.775 51.4514 63.0199 105.706 41.3756 158.615C36.9623 169.403 35.0172 179.78 32.6312 191.18C31.1828 198.1 32.4674 208.903 29.1636 214.85C24.7482 222.798 23.3533 218.001 16.9516 210.177C14.3779 207.031 -6.56993 187.711 6.09643 195.854C15.7682 202.072 23.6242 213.23 33.2342 218.318C46.4639 225.322 59.116 205.352 71.2271 205.352" stroke="#347E8F" stroke-width="3" stroke-linecap="round"/>
</svg>
