<svg width="220" height="74" viewBox="0 0 220 74" fill="none" xmlns="http://www.w3.org/2000/svg">
<path d="M144.558 29.4941C142.343 26.433 139.603 23.2778 136.415 20.116C130.991 14.7349 126.078 11.1486 126.029 11.113C125.889 11.0115 125.675 11.0216 125.551 11.135C125.426 11.2486 125.439 11.4227 125.578 11.524C125.626 11.5593 130.5 15.1171 135.892 20.4655C139.057 23.6054 141.777 26.7371 143.975 29.7737C146.718 33.5623 148.651 37.2113 149.721 40.6191C149.761 40.7437 149.898 40.8265 150.049 40.8265C150.077 40.8265 150.105 40.8238 150.133 40.8179C150.315 40.7802 150.424 40.6301 150.378 40.4826C149.291 37.0246 147.334 33.3274 144.558 29.4941Z" fill="#5B87A6"/>
<path d="M168.157 22.4466C168.283 22.3342 168.273 22.1599 168.135 22.0573C167.997 21.9547 167.783 21.9628 167.657 22.0753C167.625 22.1038 164.421 24.9772 161.016 29.1694C159.014 31.6331 157.333 34.0653 156.02 36.3983C154.374 39.3223 153.304 42.0995 152.838 44.6529C152.81 44.8034 152.938 44.9435 153.123 44.966C153.14 44.968 153.156 44.9689 153.173 44.9689C153.338 44.9689 153.483 44.8707 153.507 44.7337C154.542 39.0618 158.465 33.3086 161.574 29.481C164.952 25.3226 168.125 22.4748 168.157 22.4466Z" fill="#5B87A6"/>
<path d="M128.062 11.249C132.552 6.61671 126.931 2.74414 126.931 2.74414C126.931 2.74414 122.458 7.50692 128.062 11.249Z" fill="#5B87A6"/>
<path d="M129.784 16.5908C125.716 11.9891 119.906 14.8834 119.456 15.1174C119.438 15.127 119.428 15.1326 119.428 15.1326C119.428 15.1326 123.82 19.9443 129.784 16.5908Z" fill="#5B87A6"/>
<path d="M133.447 20.0159C127.814 16.3026 122.984 20.8284 122.984 20.8284C122.984 20.8284 128.778 24.5293 133.447 20.0159Z" fill="#5B87A6"/>
<path d="M137.33 23.3671C130.997 20.497 127.195 25.6312 127.195 25.6312C127.195 25.6312 133.684 28.4664 137.33 23.3671Z" fill="#5B87A6"/>
<path d="M140.825 27.2618C134.305 24.6841 130.861 29.983 130.861 29.983C130.861 29.983 137.534 32.519 140.825 27.2618Z" fill="#5B87A6"/>
<path d="M133.826 33.9253C133.826 33.9253 140.499 36.4612 143.79 31.2042C137.27 28.6265 133.826 33.9253 133.826 33.9253Z" fill="#5B87A6"/>
<path d="M133.294 5.98145C133.294 5.98145 127.866 10.0323 132.577 14.5162C137.995 10.5963 133.294 5.98145 133.294 5.98145Z" fill="#5B87A6"/>
<path d="M139.175 9.88867C139.175 9.88867 132.98 13.129 136.685 18.1999C142.843 15.087 139.175 9.88867 139.175 9.88867Z" fill="#5B87A6"/>
<path d="M140.056 21.8919C146.851 19.8373 144.525 14.1494 144.525 14.1494C144.525 14.1494 137.662 16.3227 140.056 21.8919Z" fill="#5B87A6"/>
<path d="M143.323 25.9979C150.443 24.8935 149.315 18.9697 149.315 18.9697C149.315 18.9697 142.102 20.1819 143.323 25.9979Z" fill="#5B87A6"/>
<path d="M146.833 30.3615C154.009 29.5286 153.221 23.5684 153.221 23.5684C153.221 23.5684 145.947 24.5055 146.833 30.3615Z" fill="#5B87A6"/>
<path d="M166.317 16.1768C166.317 16.1768 162.637 19.2937 166.279 22.3463C169.959 19.324 166.317 16.1768 166.317 16.1768Z" fill="#5B87A6"/>
<path d="M165.531 26.2819C170.115 28.3283 172.828 24.6116 172.828 24.6116C172.828 24.6116 168.133 22.5909 165.531 26.2819Z" fill="#5B87A6"/>
<path d="M163.215 28.9606C166.975 31.9169 170.794 28.9129 170.794 28.9129C170.794 28.9129 166.918 25.9572 163.215 28.9606Z" fill="#5B87A6"/>
<path d="M160.734 31.5991C163.814 35.0376 168.211 32.6124 168.211 32.6124C168.211 32.6124 165.017 29.1586 160.734 31.5991Z" fill="#5B87A6"/>
<path d="M158.58 34.6036C161.419 38.1765 165.976 35.9551 165.976 35.9551C165.976 35.9551 163.023 32.3613 158.58 34.6036Z" fill="#5B87A6"/>
<path d="M156.812 37.6104C159.652 41.1833 164.208 38.962 164.208 38.962C164.208 38.962 161.256 35.3681 156.812 37.6104Z" fill="#5B87A6"/>
<path d="M163.337 24.9633C166.309 21.4626 162.046 18.8838 162.046 18.8838C162.046 18.8838 159.094 22.4776 163.337 24.9633Z" fill="#5B87A6"/>
<path d="M160.726 27.8523C162.924 23.9912 158.184 22.04 158.184 22.04C158.184 22.04 156.026 25.9902 160.726 27.8523Z" fill="#5B87A6"/>
<path d="M158.642 30.704C159.853 26.5645 154.732 25.4189 154.732 25.4189C154.732 25.4189 153.581 29.6396 158.642 30.704Z" fill="#5B87A6"/>
<path d="M151.737 29.166C151.737 29.166 151.466 33.4837 156.675 33.8467C157.021 29.6009 151.737 29.166 151.737 29.166Z" fill="#5B87A6"/>
<path d="M149.352 32.7012C149.352 32.7012 149.329 37.0244 154.552 37.1894C154.655 32.935 149.352 32.7012 149.352 32.7012Z" fill="#5B87A6"/>
<path d="M147.62 38.8637C147.461 38.8637 147.316 38.7768 147.275 38.6457C145.937 34.3844 142.453 27.4313 133.456 18.5051C128.065 13.156 123.185 9.5931 123.137 9.55762C122.99 9.45103 122.977 9.26806 123.108 9.14861C123.239 9.02916 123.464 9.01878 123.611 9.12537C123.66 9.161 128.574 12.7482 133.999 18.1301C139.014 23.104 145.507 30.6761 147.965 38.5023C148.013 38.6572 147.898 38.8151 147.708 38.8546C147.679 38.8609 147.649 38.8637 147.62 38.8637Z" fill="#B7986E"/>
<path d="M150.745 43.0061C150.728 43.0061 150.71 43.005 150.692 43.0028C150.498 42.9794 150.364 42.8319 150.393 42.6737C152.407 31.6321 165.088 20.2027 165.216 20.0887C165.349 19.9704 165.574 19.962 165.719 20.0698C165.864 20.1775 165.875 20.3608 165.742 20.4791C165.616 20.5921 153.079 31.8936 151.097 42.759C151.07 42.9027 150.918 43.0061 150.745 43.0061Z" fill="#B7986E"/>
<path d="M125.635 9.27248L124.503 0.767578C124.503 0.767578 120.031 5.53036 125.635 9.27248Z" fill="#D9D8C1"/>
<path d="M124.502 0.767578L125.634 9.27248C130.123 4.6403 124.502 0.767578 124.502 0.767578Z" fill="#BCB39A"/>
<path d="M117.027 13.1408L127.354 14.6142C123.287 10.0125 117.477 12.9069 117.027 13.1408Z" fill="#BCB39A"/>
<path d="M127.356 14.614L117.029 13.1406C117.01 13.1502 117 13.1558 117 13.1558C117 13.1558 121.392 17.9675 127.356 14.614Z" fill="#D9D8C1"/>
<path d="M120.557 18.8518L131.019 18.0394C125.386 14.3261 120.557 18.8518 120.557 18.8518Z" fill="#BCB39A"/>
<path d="M131.019 18.0391L120.557 18.8515C120.557 18.8515 126.35 22.5524 131.019 18.0391Z" fill="#D9D8C1"/>
<path d="M134.903 21.3906L124.768 23.6547C124.768 23.6547 131.256 26.4899 134.903 21.3906Z" fill="#D9D8C1"/>
<path d="M124.768 23.6536L134.903 21.3895C128.569 18.5195 124.768 23.6536 124.768 23.6536Z" fill="#BCB39A"/>
<path d="M138.398 25.2852L128.434 28.0063C128.434 28.0063 135.107 30.5423 138.398 25.2852Z" fill="#D9D8C1"/>
<path d="M128.434 28.0074L138.398 25.2862C131.877 22.7085 128.434 28.0074 128.434 28.0074Z" fill="#BCB39A"/>
<path d="M141.362 29.2275L131.398 31.9487C131.398 31.9487 138.072 34.4845 141.362 29.2275Z" fill="#D9D8C1"/>
<path d="M131.398 31.9488L141.362 29.2276C134.842 26.65 131.398 31.9488 131.398 31.9488Z" fill="#BCB39A"/>
<path d="M130.867 4.00488C130.867 4.00488 125.438 8.05577 130.15 12.5397L130.867 4.00488Z" fill="#D9D8C1"/>
<path d="M130.865 4.00488L130.148 12.5397C135.566 8.61971 130.865 4.00488 130.865 4.00488Z" fill="#BCB39A"/>
<path d="M136.748 7.91211C136.748 7.91211 130.552 11.1526 134.258 16.2234L136.748 7.91211Z" fill="#D9D8C1"/>
<path d="M136.746 7.91211L134.256 16.2234C140.413 13.1104 136.746 7.91211 136.746 7.91211Z" fill="#BCB39A"/>
<path d="M142.098 12.1729L137.629 19.9154C144.424 17.8607 142.098 12.1729 142.098 12.1729Z" fill="#BCB39A"/>
<path d="M137.628 19.9154L142.097 12.1729C142.097 12.1729 135.234 14.3462 137.628 19.9154Z" fill="#D9D8C1"/>
<path d="M146.887 16.9941L140.895 24.0223C148.015 22.9179 146.887 16.9941 146.887 16.9941Z" fill="#BCB39A"/>
<path d="M140.895 24.0223L146.887 16.9941C146.887 16.9941 139.675 18.2063 140.895 24.0223Z" fill="#D9D8C1"/>
<path d="M144.405 28.3859L150.793 21.5928C150.793 21.5928 143.519 22.5299 144.405 28.3859Z" fill="#D9D8C1"/>
<path d="M150.792 21.5928L144.404 28.3859C151.58 27.553 150.792 21.5928 150.792 21.5928Z" fill="#BCB39A"/>
<path d="M163.89 14.2012L163.852 20.3707C167.531 17.3484 163.89 14.2012 163.89 14.2012Z" fill="#BCB39A"/>
<path d="M163.889 14.2002C163.889 14.2002 160.209 17.3172 163.851 20.3697L163.889 14.2002Z" fill="#D9D8C1"/>
<path d="M163.104 24.3053L170.4 22.635C170.4 22.635 165.705 20.6143 163.104 24.3053Z" fill="#D9D8C1"/>
<path d="M163.104 24.306C167.687 26.3525 170.4 22.6357 170.4 22.6357L163.104 24.306Z" fill="#BCB39A"/>
<path d="M168.367 26.9355L160.787 26.9834C164.547 29.9397 168.367 26.9355 168.367 26.9355Z" fill="#BCB39A"/>
<path d="M160.787 26.9841L168.367 26.9362C168.367 26.9362 164.49 23.9807 160.787 26.9841Z" fill="#D9D8C1"/>
<path d="M165.783 30.6353L158.307 29.6221C161.386 33.0604 165.783 30.6353 165.783 30.6353Z" fill="#BCB39A"/>
<path d="M158.307 29.6216L165.783 30.6348C165.783 30.6348 162.589 27.181 158.307 29.6216Z" fill="#D9D8C1"/>
<path d="M163.55 33.9785L156.154 32.627C158.994 36.1999 163.55 33.9785 163.55 33.9785Z" fill="#BCB39A"/>
<path d="M156.154 32.627L163.55 33.9786C163.55 33.9786 160.597 30.3847 156.154 32.627Z" fill="#D9D8C1"/>
<path d="M161.78 36.9854L154.385 35.6338C157.224 39.2069 161.78 36.9854 161.78 36.9854Z" fill="#BCB39A"/>
<path d="M154.385 35.6338L161.78 36.9854C161.78 36.9854 158.828 33.3916 154.385 35.6338Z" fill="#D9D8C1"/>
<path d="M159.619 16.9062L160.91 22.9858C163.882 19.485 159.619 16.9062 159.619 16.9062Z" fill="#BCB39A"/>
<path d="M160.911 22.9858L159.621 16.9062C159.621 16.9062 156.668 20.5001 160.911 22.9858Z" fill="#D9D8C1"/>
<path d="M155.756 20.0645L158.298 25.8767C160.495 22.0156 155.756 20.0645 155.756 20.0645Z" fill="#BCB39A"/>
<path d="M158.299 25.8767L155.756 20.0645C155.756 20.0645 153.598 24.0146 158.299 25.8767Z" fill="#D9D8C1"/>
<path d="M152.307 23.4424L156.217 28.7274C157.428 24.5879 152.307 23.4424 152.307 23.4424Z" fill="#BCB39A"/>
<path d="M156.215 28.7274L152.304 23.4424C152.304 23.4424 151.153 27.6629 156.215 28.7274Z" fill="#D9D8C1"/>
<path d="M154.247 31.8701L149.309 27.1895C149.309 27.1895 149.038 31.5071 154.247 31.8701Z" fill="#D9D8C1"/>
<path d="M149.309 27.1895L154.247 31.8701C154.593 27.6243 149.309 27.1895 149.309 27.1895Z" fill="#BCB39A"/>
<path d="M152.125 35.2129L146.924 30.7246C146.924 30.7246 146.901 35.0479 152.125 35.2129Z" fill="#D9D8C1"/>
<path d="M146.924 30.7246L152.124 35.2129C152.227 30.9584 146.924 30.7246 146.924 30.7246Z" fill="#BCB39A"/>
<path d="M1.02 30.24H36.38V36.7H1.02V30.24ZM14.45 36.258H22.95V52H14.45V36.258ZM56.8687 41.29V39.386L76.4867 52H63.8387L47.1787 40.44L62.5467 30.24H74.6507L56.8687 41.29ZM38.7467 30.24H47.2467V52H38.7467V30.24ZM113.133 45.336L109.971 47.138V30.24H118.471V52H109.971L84.3694 37.176L87.5314 35.34V52H79.0314V30.24H87.5314L113.133 45.336ZM0.3 60.295H10.53V61.96H0.3V60.295ZM4.425 61.75H6.42V70H4.425V61.75ZM14.4544 70.18C13.5144 70.18 12.6844 70.03 11.9644 69.73C11.2544 69.43 10.6994 68.995 10.2994 68.425C9.89938 67.845 9.69938 67.135 9.69938 66.295C9.69938 65.455 9.89938 64.745 10.2994 64.165C10.6994 63.575 11.2544 63.13 11.9644 62.83C12.6844 62.53 13.5144 62.38 14.4544 62.38C15.3944 62.38 16.2144 62.53 16.9144 62.83C17.6244 63.13 18.1794 63.575 18.5794 64.165C18.9794 64.745 19.1794 65.455 19.1794 66.295C19.1794 67.135 18.9794 67.845 18.5794 68.425C18.1794 68.995 17.6244 69.43 16.9144 69.73C16.2144 70.03 15.3944 70.18 14.4544 70.18ZM14.4544 68.68C14.9744 68.68 15.4394 68.59 15.8494 68.41C16.2694 68.22 16.5994 67.95 16.8394 67.6C17.0794 67.24 17.1994 66.805 17.1994 66.295C17.1994 65.785 17.0794 65.35 16.8394 64.99C16.5994 64.62 16.2744 64.34 15.8644 64.15C15.4544 63.96 14.9844 63.865 14.4544 63.865C13.9344 63.865 13.4644 63.96 13.0444 64.15C12.6244 64.34 12.2894 64.615 12.0394 64.975C11.7994 65.335 11.6794 65.775 11.6794 66.295C11.6794 66.805 11.7994 67.24 12.0394 67.6C12.2794 67.95 12.6094 68.22 13.0294 68.41C13.4494 68.59 13.9244 68.68 14.4544 68.68ZM20.3059 59.545H22.2559V70H20.3059V59.545ZM28.5409 62.545L24.1009 66.46L24.1459 65.26L28.8859 70H26.4109L22.3009 65.815L25.8859 62.545H28.5409ZM35.8323 67.525H37.7223C37.6423 68.035 37.4273 68.49 37.0773 68.89C36.7373 69.29 36.2723 69.605 35.6823 69.835C35.0923 70.065 34.3723 70.18 33.5223 70.18C32.5723 70.18 31.7323 70.03 31.0023 69.73C30.2723 69.42 29.7023 68.975 29.2923 68.395C28.8823 67.815 28.6773 67.115 28.6773 66.295C28.6773 65.475 28.8773 64.775 29.2773 64.195C29.6773 63.605 30.2323 63.155 30.9423 62.845C31.6623 62.535 32.5023 62.38 33.4623 62.38C34.4423 62.38 35.2573 62.535 35.9073 62.845C36.5573 63.155 37.0373 63.625 37.3473 64.255C37.6673 64.875 37.8023 65.67 37.7523 66.64H30.6423C30.6923 67.02 30.8323 67.365 31.0623 67.675C31.3023 67.985 31.6223 68.23 32.0223 68.41C32.4323 68.59 32.9173 68.68 33.4773 68.68C34.0973 68.68 34.6123 68.575 35.0223 68.365C35.4423 68.145 35.7123 67.865 35.8323 67.525ZM33.3723 63.865C32.6523 63.865 32.0673 64.025 31.6173 64.345C31.1673 64.655 30.8773 65.04 30.7473 65.5H35.8173C35.7673 65 35.5273 64.605 35.0973 64.315C34.6773 64.015 34.1023 63.865 33.3723 63.865ZM38.7533 62.545H40.7033V70H38.7533V62.545ZM44.1683 62.38C44.6283 62.38 45.0533 62.44 45.4433 62.56C45.8333 62.68 46.1733 62.865 46.4633 63.115C46.7533 63.365 46.9783 63.685 47.1383 64.075C47.2983 64.455 47.3783 64.91 47.3783 65.44V70H45.4283V65.785C45.4283 65.155 45.2733 64.695 44.9633 64.405C44.6633 64.105 44.1683 63.955 43.4783 63.955C42.9583 63.955 42.4883 64.055 42.0683 64.255C41.6483 64.455 41.3083 64.71 41.0483 65.02C40.7883 65.32 40.6383 65.635 40.5983 65.965L40.5833 65.2C40.6333 64.85 40.7483 64.51 40.9283 64.18C41.1083 63.85 41.3483 63.55 41.6483 63.28C41.9583 63 42.3233 62.78 42.7433 62.62C43.1633 62.46 43.6383 62.38 44.1683 62.38ZM56.2819 65.275L56.2669 64.435L62.8069 70H59.9269L54.1069 64.9L59.2819 60.295H62.1169L56.2819 65.275ZM52.1269 60.295H54.1219V70H52.1269V60.295ZM67.0083 70.18C66.0683 70.18 65.2383 70.03 64.5183 69.73C63.8083 69.43 63.2533 68.995 62.8533 68.425C62.4533 67.845 62.2533 67.135 62.2533 66.295C62.2533 65.455 62.4533 64.745 62.8533 64.165C63.2533 63.575 63.8083 63.13 64.5183 62.83C65.2383 62.53 66.0683 62.38 67.0083 62.38C67.9483 62.38 68.7683 62.53 69.4683 62.83C70.1783 63.13 70.7333 63.575 71.1333 64.165C71.5333 64.745 71.7333 65.455 71.7333 66.295C71.7333 67.135 71.5333 67.845 71.1333 68.425C70.7333 68.995 70.1783 69.43 69.4683 69.73C68.7683 70.03 67.9483 70.18 67.0083 70.18ZM67.0083 68.68C67.5283 68.68 67.9933 68.59 68.4033 68.41C68.8233 68.22 69.1533 67.95 69.3933 67.6C69.6333 67.24 69.7533 66.805 69.7533 66.295C69.7533 65.785 69.6333 65.35 69.3933 64.99C69.1533 64.62 68.8283 64.34 68.4183 64.15C68.0083 63.96 67.5383 63.865 67.0083 63.865C66.4883 63.865 66.0183 63.96 65.5983 64.15C65.1783 64.34 64.8433 64.615 64.5933 64.975C64.3533 65.335 64.2333 65.775 64.2333 66.295C64.2333 66.805 64.3533 67.24 64.5933 67.6C64.8333 67.95 65.1633 68.22 65.5833 68.41C66.0033 68.59 66.4783 68.68 67.0083 68.68ZM72.7248 62.545H74.6748V70H72.7248V62.545ZM78.1398 62.38C78.5998 62.38 79.0248 62.44 79.4148 62.56C79.8048 62.68 80.1448 62.865 80.4348 63.115C80.7248 63.365 80.9498 63.685 81.1098 64.075C81.2698 64.455 81.3498 64.91 81.3498 65.44V70H79.3998V65.785C79.3998 65.155 79.2448 64.695 78.9348 64.405C78.6348 64.105 78.1398 63.955 77.4498 63.955C76.9298 63.955 76.4598 64.055 76.0398 64.255C75.6198 64.455 75.2798 64.71 75.0198 65.02C74.7598 65.32 74.6098 65.635 74.5698 65.965L74.5548 65.2C74.6048 64.85 74.7198 64.51 74.8998 64.18C75.0798 63.85 75.3198 63.55 75.6198 63.28C75.9298 63 76.2948 62.78 76.7148 62.62C77.1348 62.46 77.6098 62.38 78.1398 62.38ZM84.6348 62.38C85.0948 62.38 85.5198 62.44 85.9098 62.56C86.2998 62.68 86.6398 62.865 86.9298 63.115C87.2198 63.365 87.4448 63.685 87.6048 64.075C87.7748 64.455 87.8598 64.91 87.8598 65.44V70H85.9098V65.785C85.9098 65.155 85.7548 64.695 85.4448 64.405C85.1348 64.105 84.6348 63.955 83.9448 63.955C83.4248 63.955 82.9548 64.055 82.5348 64.255C82.1148 64.455 81.7748 64.71 81.5148 65.02C81.2548 65.32 81.1098 65.635 81.0798 65.965L81.0498 65.155C81.0998 64.825 81.2198 64.495 81.4098 64.165C81.5998 63.835 81.8498 63.535 82.1598 63.265C82.4698 62.995 82.8298 62.78 83.2398 62.62C83.6598 62.46 84.1248 62.38 84.6348 62.38ZM93.5741 70.18C92.6341 70.18 91.8041 70.03 91.0841 69.73C90.3741 69.43 89.8191 68.995 89.4191 68.425C89.0191 67.845 88.8191 67.135 88.8191 66.295C88.8191 65.455 89.0191 64.745 89.4191 64.165C89.8191 63.575 90.3741 63.13 91.0841 62.83C91.8041 62.53 92.6341 62.38 93.5741 62.38C94.5141 62.38 95.3341 62.53 96.0341 62.83C96.7441 63.13 97.2991 63.575 97.6991 64.165C98.0991 64.745 98.2991 65.455 98.2991 66.295C98.2991 67.135 98.0991 67.845 97.6991 68.425C97.2991 68.995 96.7441 69.43 96.0341 69.73C95.3341 70.03 94.5141 70.18 93.5741 70.18ZM93.5741 68.68C94.0941 68.68 94.5591 68.59 94.9691 68.41C95.3891 68.22 95.7191 67.95 95.9591 67.6C96.1991 67.24 96.3191 66.805 96.3191 66.295C96.3191 65.785 96.1991 65.35 95.9591 64.99C95.7191 64.62 95.3941 64.34 94.9841 64.15C94.5741 63.96 94.1041 63.865 93.5741 63.865C93.0541 63.865 92.5841 63.96 92.1641 64.15C91.7441 64.34 91.4091 64.615 91.1591 64.975C90.9191 65.335 90.7991 65.775 90.7991 66.295C90.7991 66.805 90.9191 67.24 91.1591 67.6C91.3991 67.95 91.7291 68.22 92.1491 68.41C92.5691 68.59 93.0441 68.68 93.5741 68.68ZM102.921 70.165C102.171 70.165 101.491 70.005 100.881 69.685C100.281 69.355 99.8056 68.9 99.4556 68.32C99.1056 67.73 98.9306 67.05 98.9306 66.28C98.9306 65.49 99.1006 64.805 99.4406 64.225C99.7906 63.645 100.266 63.195 100.866 62.875C101.466 62.545 102.151 62.38 102.921 62.38C103.591 62.38 104.161 62.48 104.631 62.68C105.101 62.88 105.481 63.16 105.771 63.52C106.061 63.87 106.271 64.28 106.401 64.75C106.541 65.22 106.611 65.73 106.611 66.28C106.611 66.72 106.541 67.17 106.401 67.63C106.261 68.08 106.046 68.5 105.756 68.89C105.466 69.27 105.086 69.58 104.616 69.82C104.146 70.05 103.581 70.165 102.921 70.165ZM103.551 68.665C104.141 68.665 104.651 68.565 105.081 68.365C105.511 68.165 105.841 67.885 106.071 67.525C106.301 67.165 106.416 66.75 106.416 66.28C106.416 65.77 106.296 65.34 106.056 64.99C105.826 64.63 105.496 64.355 105.066 64.165C104.646 63.975 104.141 63.88 103.551 63.88C102.721 63.88 102.076 64.1 101.616 64.54C101.156 64.98 100.926 65.56 100.926 66.28C100.926 66.76 101.036 67.18 101.256 67.54C101.476 67.89 101.781 68.165 102.171 68.365C102.571 68.565 103.031 68.665 103.551 68.665ZM106.416 59.545H108.366V70H106.551C106.521 69.77 106.491 69.475 106.461 69.115C106.431 68.745 106.416 68.4 106.416 68.08V59.545ZM112.252 59.275V60.985H109.987V59.275H112.252ZM110.137 62.545H112.087V70H110.137V62.545ZM113.056 62.545H118.846V64.06H113.056V62.545ZM114.976 60.505H116.926V70H114.976V60.505ZM121.87 59.275V60.985H119.605V59.275H121.87ZM119.755 62.545H121.705V70H119.755V62.545ZM136.462 68.02L135.832 68.275V60.295H137.827V70H135.832L127.987 62.335L128.617 62.08V70H126.622V60.295H128.617L136.462 68.02ZM148.062 70H146.112V62.545H148.062V70ZM146.217 66.415L146.232 66.925C146.212 67.065 146.162 67.27 146.082 67.54C146.002 67.8 145.877 68.08 145.707 68.38C145.547 68.68 145.337 68.97 145.077 69.25C144.817 69.52 144.497 69.745 144.117 69.925C143.737 70.095 143.287 70.18 142.767 70.18C142.357 70.18 141.952 70.13 141.552 70.03C141.162 69.93 140.807 69.765 140.487 69.535C140.167 69.295 139.912 68.975 139.722 68.575C139.532 68.175 139.437 67.67 139.437 67.06V62.545H141.387V66.73C141.387 67.21 141.462 67.59 141.612 67.87C141.772 68.14 142.002 68.33 142.302 68.44C142.602 68.55 142.957 68.605 143.367 68.605C143.907 68.605 144.372 68.49 144.762 68.26C145.152 68.02 145.467 67.73 145.707 67.39C145.957 67.05 146.127 66.725 146.217 66.415ZM149.088 67.525H150.888C150.998 67.865 151.223 68.145 151.563 68.365C151.913 68.575 152.368 68.68 152.928 68.68C153.308 68.68 153.603 68.645 153.813 68.575C154.023 68.505 154.168 68.405 154.248 68.275C154.328 68.135 154.368 67.98 154.368 67.81C154.368 67.6 154.303 67.44 154.173 67.33C154.043 67.21 153.843 67.115 153.573 67.045C153.303 66.975 152.958 66.91 152.538 66.85C152.118 66.78 151.713 66.695 151.323 66.595C150.933 66.495 150.588 66.365 150.288 66.205C149.988 66.035 149.748 65.825 149.568 65.575C149.398 65.315 149.313 65 149.313 64.63C149.313 64.27 149.398 63.95 149.568 63.67C149.748 63.39 149.993 63.155 150.303 62.965C150.623 62.775 150.993 62.63 151.413 62.53C151.843 62.43 152.303 62.38 152.793 62.38C153.533 62.38 154.148 62.49 154.638 62.71C155.128 62.92 155.493 63.22 155.733 63.61C155.983 63.99 156.108 64.43 156.108 64.93H154.383C154.303 64.56 154.143 64.295 153.903 64.135C153.663 63.965 153.293 63.88 152.793 63.88C152.303 63.88 151.933 63.955 151.683 64.105C151.433 64.255 151.308 64.46 151.308 64.72C151.308 64.93 151.383 65.095 151.533 65.215C151.693 65.325 151.923 65.415 152.223 65.485C152.533 65.555 152.918 65.63 153.378 65.71C153.768 65.79 154.138 65.88 154.488 65.98C154.848 66.08 155.168 66.21 155.448 66.37C155.728 66.52 155.948 66.725 156.108 66.985C156.278 67.235 156.363 67.555 156.363 67.945C156.363 68.425 156.223 68.83 155.943 69.16C155.673 69.49 155.283 69.745 154.773 69.925C154.263 70.095 153.653 70.18 152.943 70.18C152.313 70.18 151.768 70.115 151.308 69.985C150.858 69.845 150.483 69.67 150.183 69.46C149.883 69.24 149.648 69.01 149.478 68.77C149.318 68.52 149.208 68.285 149.148 68.065C149.088 67.845 149.068 67.665 149.088 67.525ZM161.034 70.165C160.294 70.165 159.619 70.005 159.009 69.685C158.409 69.355 157.929 68.9 157.569 68.32C157.219 67.73 157.044 67.05 157.044 66.28C157.044 65.49 157.224 64.805 157.584 64.225C157.944 63.645 158.429 63.195 159.039 62.875C159.659 62.545 160.359 62.38 161.139 62.38C161.999 62.38 162.689 62.555 163.209 62.905C163.739 63.245 164.124 63.71 164.364 64.3C164.604 64.89 164.724 65.55 164.724 66.28C164.724 66.72 164.654 67.17 164.514 67.63C164.374 68.08 164.159 68.5 163.869 68.89C163.579 69.27 163.199 69.58 162.729 69.82C162.259 70.05 161.694 70.165 161.034 70.165ZM161.664 68.665C162.254 68.665 162.764 68.565 163.194 68.365C163.624 68.165 163.954 67.885 164.184 67.525C164.414 67.165 164.529 66.75 164.529 66.28C164.529 65.77 164.409 65.34 164.169 64.99C163.939 64.63 163.609 64.36 163.179 64.18C162.759 63.99 162.254 63.895 161.664 63.895C160.834 63.895 160.189 64.115 159.729 64.555C159.269 64.985 159.039 65.56 159.039 66.28C159.039 66.76 159.149 67.18 159.369 67.54C159.589 67.89 159.894 68.165 160.284 68.365C160.684 68.565 161.144 68.665 161.664 68.665ZM164.529 62.545H166.479V70H164.664C164.664 70 164.649 69.905 164.619 69.715C164.599 69.515 164.579 69.265 164.559 68.965C164.539 68.665 164.529 68.37 164.529 68.08V62.545ZM167.794 62.545H169.744V70H167.794V62.545ZM173.209 62.38C173.669 62.38 174.094 62.44 174.484 62.56C174.874 62.68 175.214 62.865 175.504 63.115C175.794 63.365 176.019 63.685 176.179 64.075C176.339 64.455 176.419 64.91 176.419 65.44V70H174.469V65.785C174.469 65.155 174.314 64.695 174.004 64.405C173.704 64.105 173.209 63.955 172.519 63.955C171.999 63.955 171.529 64.055 171.109 64.255C170.689 64.455 170.349 64.71 170.089 65.02C169.829 65.32 169.679 65.635 169.639 65.965L169.624 65.2C169.674 64.85 169.789 64.51 169.969 64.18C170.149 63.85 170.389 63.55 170.689 63.28C170.999 63 171.364 62.78 171.784 62.62C172.204 62.46 172.679 62.38 173.209 62.38ZM177.22 62.545H183.01V64.06H177.22V62.545ZM179.14 60.505H181.09V70H179.14V60.505ZM187.326 70.165C186.586 70.165 185.911 70.005 185.301 69.685C184.701 69.355 184.221 68.9 183.861 68.32C183.511 67.73 183.336 67.05 183.336 66.28C183.336 65.49 183.516 64.805 183.876 64.225C184.236 63.645 184.721 63.195 185.331 62.875C185.951 62.545 186.651 62.38 187.431 62.38C188.291 62.38 188.981 62.555 189.501 62.905C190.031 63.245 190.416 63.71 190.656 64.3C190.896 64.89 191.016 65.55 191.016 66.28C191.016 66.72 190.946 67.17 190.806 67.63C190.666 68.08 190.451 68.5 190.161 68.89C189.871 69.27 189.491 69.58 189.021 69.82C188.551 70.05 187.986 70.165 187.326 70.165ZM187.956 68.665C188.546 68.665 189.056 68.565 189.486 68.365C189.916 68.165 190.246 67.885 190.476 67.525C190.706 67.165 190.821 66.75 190.821 66.28C190.821 65.77 190.701 65.34 190.461 64.99C190.231 64.63 189.901 64.36 189.471 64.18C189.051 63.99 188.546 63.895 187.956 63.895C187.126 63.895 186.481 64.115 186.021 64.555C185.561 64.985 185.331 65.56 185.331 66.28C185.331 66.76 185.441 67.18 185.661 67.54C185.881 67.89 186.186 68.165 186.576 68.365C186.976 68.565 187.436 68.665 187.956 68.665ZM190.821 62.545H192.771V70H190.956C190.956 70 190.941 69.905 190.911 69.715C190.891 69.515 190.871 69.265 190.851 68.965C190.831 68.665 190.821 68.37 190.821 68.08V62.545ZM194.086 62.545H196.036V70H194.086V62.545ZM198.901 64.15C198.341 64.15 197.856 64.26 197.446 64.48C197.036 64.69 196.706 64.95 196.456 65.26C196.206 65.57 196.031 65.87 195.931 66.16L195.916 65.335C195.926 65.215 195.966 65.04 196.036 64.81C196.106 64.57 196.211 64.315 196.351 64.045C196.491 63.765 196.676 63.5 196.906 63.25C197.136 62.99 197.416 62.78 197.746 62.62C198.076 62.46 198.461 62.38 198.901 62.38V64.15ZM203.286 70.165C202.546 70.165 201.871 70.005 201.261 69.685C200.661 69.355 200.181 68.9 199.821 68.32C199.471 67.73 199.296 67.05 199.296 66.28C199.296 65.49 199.476 64.805 199.836 64.225C200.196 63.645 200.681 63.195 201.291 62.875C201.911 62.545 202.611 62.38 203.391 62.38C204.251 62.38 204.941 62.555 205.461 62.905C205.991 63.245 206.376 63.71 206.616 64.3C206.856 64.89 206.976 65.55 206.976 66.28C206.976 66.72 206.906 67.17 206.766 67.63C206.626 68.08 206.411 68.5 206.121 68.89C205.831 69.27 205.451 69.58 204.981 69.82C204.511 70.05 203.946 70.165 203.286 70.165ZM203.916 68.665C204.506 68.665 205.016 68.565 205.446 68.365C205.876 68.165 206.206 67.885 206.436 67.525C206.666 67.165 206.781 66.75 206.781 66.28C206.781 65.77 206.661 65.34 206.421 64.99C206.191 64.63 205.861 64.36 205.431 64.18C205.011 63.99 204.506 63.895 203.916 63.895C203.086 63.895 202.441 64.115 201.981 64.555C201.521 64.985 201.291 65.56 201.291 66.28C201.291 66.76 201.401 67.18 201.621 67.54C201.841 67.89 202.146 68.165 202.536 68.365C202.936 68.565 203.396 68.665 203.916 68.665ZM206.781 62.545H208.731V70H206.916C206.916 70 206.901 69.905 206.871 69.715C206.851 69.515 206.831 69.265 206.811 68.965C206.791 68.665 206.781 68.37 206.781 68.08V62.545Z" fill="#347E8F"/>
</svg>
